<svg width="31" height="31" viewBox="0 0 31 31" fill="none" xmlns="http://www.w3.org/2000/svg">
<g opacity="0.9" clip-path="url(#clip0_0_319)">
<path d="M27.4467 23.4654C26.993 24.5135 26.456 25.4783 25.8338 26.3653C24.9857 27.5745 24.2913 28.4115 23.7561 28.8763C22.9265 29.6393 22.0376 30.03 21.0858 30.0522C20.4025 30.0522 19.5784 29.8578 18.6192 29.4634C17.6568 29.0708 16.7724 28.8763 15.9637 28.8763C15.1156 28.8763 14.206 29.0708 13.2331 29.4634C12.2587 29.8578 11.4737 30.0633 10.8735 30.0837C9.96078 30.1226 9.051 29.7208 8.14288 28.8763C7.56327 28.3708 6.83829 27.5042 5.9698 26.2764C5.03798 24.9653 4.27189 23.445 3.67173 21.7117C3.02897 19.8396 2.70676 18.0267 2.70676 16.2715C2.70676 14.261 3.14119 12.527 4.01134 11.0739C4.69521 9.90672 5.605 8.98601 6.74366 8.3101C7.88233 7.6342 9.11266 7.28976 10.4376 7.26773C11.1626 7.26773 12.1133 7.49198 13.2948 7.93271C14.4729 8.37492 15.2293 8.59917 15.561 8.59917C15.8089 8.59917 16.6493 8.33695 18.0739 7.81419C19.421 7.32939 20.558 7.12866 21.4895 7.20773C24.0135 7.41143 25.9097 8.4064 27.1708 10.1989C24.9135 11.5667 23.7968 13.4824 23.819 15.9399C23.8394 17.8541 24.5338 19.447 25.8986 20.7118C26.5171 21.2988 27.2078 21.7525 27.9763 22.0747C27.8097 22.558 27.6337 23.021 27.4467 23.4654ZM21.658 0.686444C21.658 2.18679 21.1099 3.58765 20.0173 4.88428C18.6988 6.42572 17.1041 7.31643 15.3747 7.17588C15.3526 6.99588 15.3399 6.80645 15.3399 6.60738C15.3399 5.16705 15.9669 3.62561 17.0804 2.36528C17.6363 1.72715 18.3433 1.19656 19.2007 0.773292C20.0562 0.356342 20.8654 0.125759 21.6265 0.0862732C21.6487 0.286846 21.658 0.487431 21.658 0.686425V0.686444Z" fill="black"/>
</g>
<defs>
<clipPath id="clip0_0_319">
<rect width="30" height="30" fill="white" transform="translate(0.206757 0.0859375)"/>
</clipPath>
</defs>
</svg>
