<svg width="31" height="31" viewBox="0 0 31 31" fill="none" xmlns="http://www.w3.org/2000/svg">
<g opacity="0.9" clip-path="url(#clip0_0_317)">
<path d="M30.2068 15.0859C30.2068 6.80174 23.491 0.0859375 15.2068 0.0859375C6.92256 0.0859375 0.206757 6.80174 0.206757 15.0859C0.206757 22.1203 5.04996 28.0231 11.5834 29.6443V19.6699H8.49036V15.0859H11.5834V13.1107C11.5834 8.00534 13.894 5.63894 18.9064 5.63894C19.8568 5.63894 21.4966 5.82554 22.1674 6.01154V10.1665C21.8134 10.1293 21.1984 10.1107 20.4346 10.1107C17.9752 10.1107 17.0248 11.0425 17.0248 13.4647V15.0859H21.9244L21.0826 19.6699H17.0248V29.9761C24.4522 29.0791 30.2074 22.7551 30.2074 15.0859H30.2068Z" fill="#0866FF"/>
<path d="M21.082 19.6699L21.9238 15.0859H17.0242V13.4647C17.0242 11.0425 17.9746 10.1107 20.434 10.1107C21.1978 10.1107 21.8128 10.1293 22.1668 10.1665V6.01155C21.496 5.82495 19.8562 5.63895 18.9058 5.63895C13.8934 5.63895 11.5828 8.00535 11.5828 13.1107V15.0859H8.48976V19.6699H11.5828V29.6443C12.7432 29.9323 13.957 30.0859 15.2062 30.0859C15.8212 30.0859 16.4278 30.0481 17.0236 29.9761V19.6699H21.0814H21.082Z" fill="white"/>
</g>
<defs>
<clipPath id="clip0_0_317">
<rect width="30" height="30" fill="white" transform="translate(0.206757 0.0859375)"/>
</clipPath>
</defs>
</svg>
