<svg width="31" height="31" viewBox="0 0 31 31" fill="none" xmlns="http://www.w3.org/2000/svg">
<g opacity="0.9" clip-path="url(#clip0_0_315)">
<path d="M15.2065 12.3586V18.1677H23.2792C22.9247 20.0359 21.861 21.6178 20.2656 22.6814L25.1337 26.4587C27.9701 23.8406 29.6064 19.9951 29.6064 15.4269C29.6064 14.3633 29.511 13.3405 29.3337 12.3588L15.2065 12.3586Z" fill="#4285F4"/>
<path d="M6.8001 17.9409L5.70215 18.7814L1.81572 21.8086C4.28389 26.7041 9.34261 30.0859 15.2062 30.0859C19.2561 30.0859 22.6515 28.7496 25.1334 26.4587L20.2652 22.6814C18.9289 23.5814 17.2243 24.1269 15.2062 24.1269C11.3062 24.1269 7.99268 21.4951 6.80623 17.9496L6.8001 17.9409Z" fill="#34A853"/>
<path d="M1.81573 8.36322C0.793059 10.3813 0.206757 12.6586 0.206757 15.0859C0.206757 17.5131 0.793059 19.7904 1.81573 21.8085C1.81573 21.822 6.80673 17.9358 6.80673 17.9358C6.50673 17.0358 6.3294 16.0813 6.3294 15.0857C6.3294 14.0901 6.50673 13.1356 6.80673 12.2356L1.81573 8.36322Z" fill="#FBBC05"/>
<path d="M15.2065 6.05866C17.4156 6.05866 19.3792 6.82228 20.9474 8.29502L25.2428 3.99962C22.6383 1.57239 19.2566 0.0859375 15.2065 0.0859375C9.34292 0.0859375 4.2839 3.45411 1.81572 8.36322L6.80656 12.236C7.99285 8.69046 11.3065 6.05866 15.2065 6.05866Z" fill="#EA4335"/>
</g>
<defs>
<clipPath id="clip0_0_315">
<rect width="30" height="30" fill="white" transform="translate(0.206757 0.0859375)"/>
</clipPath>
</defs>
</svg>
