<svg width="42" height="42" viewBox="0 0 42 42" fill="none" xmlns="http://www.w3.org/2000/svg">
<mask id="path-1-inside-1_0_277" fill="white">
<path d="M0.270356 9.29527L11.7404 10.4074C17.2241 10.9391 21.2386 15.8156 20.7069 21.2994L9.23689 20.1872C3.75312 19.6555 -0.261339 14.779 0.270356 9.29527Z"/>
<path d="M0.967558 2.10509L5.94382 2.58758C15.014 3.467 21.6539 11.5327 20.7745 20.6029L20.7069 21.2994L15.7307 20.8168C6.66052 19.9374 0.02061 11.8717 0.900035 2.80151L0.967558 2.10509Z"/>
<path d="M13.5169 20.6022L12.4048 32.0722C11.8731 37.556 6.99657 41.5704 1.51279 41.0387L2.6249 29.5687C3.1566 24.085 8.0331 20.0705 13.5169 20.6022Z"/>
<path d="M20.7069 21.2994L20.2244 26.2756C19.345 35.3458 11.2792 41.9857 2.20906 41.1062L1.51279 41.0387L1.99513 36.0625C2.87456 26.9923 10.9403 20.3524 20.0105 21.2318L20.7069 21.2994Z"/>
<path d="M32.7108 0.862824L31.5987 12.3328C31.067 17.8166 26.1907 21.831 20.7069 21.2994L21.8188 9.82936C22.3505 4.34558 27.227 0.331129 32.7108 0.862824Z"/>
<path d="M39.901 1.55999L39.4186 6.53624C38.5391 15.6064 30.4734 22.2463 21.4032 21.3669L20.7069 21.2994L21.1893 16.3231C22.0687 7.25295 30.1345 0.613038 39.2046 1.49246L39.901 1.55999Z"/>
<path d="M41.1432 33.3035L29.6732 32.1913C24.1894 31.6596 20.1752 26.7831 20.7069 21.2994L32.1767 22.4115C37.6604 22.9432 41.6749 27.8197 41.1432 33.3035Z"/>
<path d="M40.4462 40.4936L35.4699 40.0111C26.3998 39.1317 19.7599 31.066 20.6393 21.9958L20.7069 21.2994L25.6831 21.7819C34.7532 22.6613 41.3932 30.727 40.5137 39.7972L40.4462 40.4936Z"/>
</mask>
<path d="M0.270356 9.29527L1.06653 1.08378L-7.14497 0.287609L-7.94114 8.4991L0.270356 9.29527ZM9.23689 20.1872L8.44072 28.3987H8.44072L9.23689 20.1872ZM11.7404 10.4074L12.5365 2.19589H12.5365L11.7404 10.4074ZM0.967558 2.10509L1.76373 -6.1064L-6.44776 -6.90257L-7.24393 1.30892L0.967558 2.10509ZM15.7307 20.8168L16.5269 12.6053L16.5269 12.6053L15.7307 20.8168ZM0.900035 2.80151L-7.31146 2.00534V2.00534L0.900035 2.80151ZM5.94382 2.58758L6.73999 -5.62391L5.94382 2.58758ZM20.7745 20.6029L28.9859 21.3997L28.986 21.3991L20.7745 20.6029ZM13.5169 20.6022L21.7284 21.3984L22.5245 13.1869L14.313 12.3907L13.5169 20.6022ZM1.51279 41.0387L-6.69872 40.2428L-7.49461 48.4539L0.716486 49.2502L1.51279 41.0387ZM2.6249 29.5687L-5.58659 28.7726L2.6249 29.5687ZM12.4048 32.0722L4.19327 31.276V31.276L12.4048 32.0722ZM1.99513 36.0625L-6.21636 35.2663L-6.21638 35.2665L1.99513 36.0625ZM20.0105 21.2318L20.8068 13.0203L20.8066 13.0203L20.0105 21.2318ZM20.2244 26.2756L12.0129 25.4794L12.0129 25.4794L20.2244 26.2756ZM2.20906 41.1062L1.41275 49.3177L1.41289 49.3177L2.20906 41.1062ZM32.7108 0.862824L40.9223 1.65899L41.7185 -6.5525L33.507 -7.34867L32.7108 0.862824ZM21.8188 9.82936L13.6074 9.03319L13.6073 9.03329L21.8188 9.82936ZM31.5987 12.3328L23.3872 11.5366L31.5987 12.3328ZM39.901 1.55999L48.1125 2.35615L48.9087 -5.85533L40.6972 -6.65151L39.901 1.55999ZM21.1893 16.3231L12.9778 15.5269L12.9778 15.527L21.1893 16.3231ZM39.2046 1.49246L40.0008 -6.71903H40.0008L39.2046 1.49246ZM39.4186 6.53624L47.6301 7.33241V7.33241L39.4186 6.53624ZM21.4032 21.3669L20.6068 29.5784L20.6071 29.5784L21.4032 21.3669ZM41.1432 33.3035L40.347 41.5149L48.5585 42.3111L49.3547 34.0996L41.1432 33.3035ZM32.1767 22.4115L31.3805 30.623L31.3805 30.623L32.1767 22.4115ZM29.6732 32.1913L30.4694 23.9799H30.4694L29.6732 32.1913ZM40.4462 40.4936L39.65 48.7051L47.8615 49.5013L48.6577 41.2898L40.4462 40.4936ZM25.6831 21.7819L24.8869 29.9934L24.8869 29.9934L25.6831 21.7819ZM40.5137 39.7972L48.7252 40.5934L48.7252 40.5934L40.5137 39.7972ZM35.4699 40.0111L36.2661 31.7996H36.2661L35.4699 40.0111ZM20.6393 21.9958L12.4279 21.1989L12.4278 21.1996L20.6393 21.9958ZM-0.525813 17.5068L10.9442 18.6189L12.5365 2.19589L1.06653 1.08378L-0.525813 17.5068ZM21.5031 13.0879L10.0331 11.9758L8.44072 28.3987L19.9107 29.5108L21.5031 13.0879ZM10.0331 11.9758C9.08437 11.8838 8.38987 11.0401 8.48185 10.0914L-7.94114 8.4991C-8.91255 18.518 -1.57814 27.4273 8.44072 28.3987L10.0331 11.9758ZM10.9442 18.6189C11.8929 18.7109 12.5874 19.5545 12.4954 20.5032L28.9184 22.0955C29.8898 12.0767 22.5554 3.16729 12.5365 2.19589L10.9442 18.6189ZM0.171388 10.3166L5.14765 10.7991L6.73999 -5.62391L1.76373 -6.1064L0.171388 10.3166ZM12.563 19.8061L12.4955 20.5025L28.9183 22.0962L28.9859 21.3997L12.563 19.8061ZM21.5031 13.0879L16.5269 12.6053L14.9345 29.0283L19.9107 29.5108L21.5031 13.0879ZM9.11153 3.59768L9.17905 2.90126L-7.24393 1.30892L-7.31146 2.00534L9.11153 3.59768ZM16.5269 12.6053C11.9918 12.1656 8.67182 8.13276 9.11153 3.59768L-7.31146 2.00534C-8.6306 15.6106 1.32927 27.7092 14.9345 29.0283L16.5269 12.6053ZM5.14765 10.7991C9.68273 11.2388 13.0027 15.2717 12.563 19.8067L28.986 21.3991C30.3051 7.79383 20.3452 -4.30478 6.73999 -5.62391L5.14765 10.7991ZM5.30538 19.806L4.19327 31.276L20.6163 32.8684L21.7284 21.3984L5.30538 19.806ZM9.72429 41.8349L10.8364 30.3649L-5.58659 28.7726L-6.6987 40.2426L9.72429 41.8349ZM10.8364 30.3649C10.9284 29.4162 11.772 28.7217 12.7207 28.8137L14.313 12.3907C4.29419 11.4193 -4.61518 18.7537 -5.58659 28.7726L10.8364 30.3649ZM4.19327 31.276C4.10129 32.2247 3.25765 32.9192 2.30896 32.8272L0.716624 49.2502C10.7355 50.2216 19.6448 42.8872 20.6163 32.8684L4.19327 31.276ZM12.4954 20.5032L12.0129 25.4794L28.4359 27.0718L28.9184 22.0955L12.4954 20.5032ZM3.00537 32.8948L2.3091 32.8272L0.716486 49.2502L1.41275 49.3177L3.00537 32.8948ZM9.72431 41.8347L10.2066 36.8584L-6.21638 35.2665L-6.69872 40.2428L9.72431 41.8347ZM19.2142 29.4433L19.9106 29.5108L21.5032 13.0879L20.8068 13.0203L19.2142 29.4433ZM10.2066 36.8586C10.6463 32.3236 14.6792 29.0036 19.2143 29.4433L20.8066 13.0203C7.20138 11.7012 -4.89722 21.6611 -6.21636 35.2663L10.2066 36.8586ZM12.0129 25.4794C11.5732 30.0145 7.54031 33.3345 3.00523 32.8948L1.41289 49.3177C15.0181 50.6369 27.1167 40.677 28.4359 27.0718L12.0129 25.4794ZM24.4993 0.0666542L23.3872 11.5366L39.8102 13.129L40.9223 1.65899L24.4993 0.0666542ZM28.9184 22.0954L30.0303 10.6254L13.6073 9.03329L12.4954 20.5033L28.9184 22.0954ZM30.0303 10.6255C30.1223 9.67683 30.966 8.98233 31.9146 9.07432L33.507 -7.34867C23.4881 -8.32008 14.5788 -0.985666 13.6074 9.03319L30.0303 10.6255ZM23.3872 11.5366C23.2952 12.4855 22.4516 13.1798 21.5031 13.0879L19.9107 29.5108C29.9297 30.4823 38.8388 23.1477 39.8102 13.129L23.3872 11.5366ZM31.6896 0.763818L31.2071 5.74008L47.6301 7.33241L48.1125 2.35615L31.6896 0.763818ZM22.1997 13.1554L21.5034 13.0879L19.9104 29.5108L20.6068 29.5784L22.1997 13.1554ZM28.9184 22.0954L29.4008 17.1192L12.9778 15.527L12.4954 20.5033L28.9184 22.0954ZM38.4085 9.70396L39.1049 9.77148L40.6972 -6.65151L40.0008 -6.71903L38.4085 9.70396ZM29.4008 17.1193C29.8405 12.5842 33.8734 9.26424 38.4085 9.70396L40.0008 -6.71903C26.3956 -8.03817 14.2969 1.9217 12.9778 15.5269L29.4008 17.1193ZM31.2071 5.74007C30.7674 10.2752 26.7345 13.5951 22.1994 13.1554L20.6071 29.5784C34.2123 30.8975 46.3109 20.9377 47.6301 7.33241L31.2071 5.74007ZM41.9394 25.092L30.4694 23.9799L28.877 40.4028L40.347 41.5149L41.9394 25.092ZM19.9107 29.5108L31.3805 30.623L32.9729 14.2L21.5031 13.0879L19.9107 29.5108ZM31.3805 30.623C32.3292 30.715 33.0237 31.5586 32.9317 32.5073L49.3547 34.0996C50.3261 24.0808 42.9917 15.1714 32.9728 14.2L31.3805 30.623ZM30.4694 23.9799C29.5209 23.8879 28.8264 23.0445 28.9184 22.0955L12.4954 20.5032C11.524 30.5218 18.8579 39.4314 28.877 40.4028L30.4694 23.9799ZM41.2424 32.2821L36.2661 31.7996L34.6738 48.2226L39.65 48.7051L41.2424 32.2821ZM28.8507 22.7927L28.9183 22.0962L12.4955 20.5025L12.4279 21.1989L28.8507 22.7927ZM19.9107 29.5108L24.8869 29.9934L26.4793 13.5704L21.5031 13.0879L19.9107 29.5108ZM32.3022 39.001L32.2347 39.6974L48.6577 41.2898L48.7252 40.5934L32.3022 39.001ZM24.8869 29.9934C29.422 30.4331 32.7419 34.4659 32.3022 39.001L48.7252 40.5934C50.0444 26.9881 40.0845 14.8895 26.4792 13.5704L24.8869 29.9934ZM36.2661 31.7996C31.731 31.3599 28.4111 27.327 28.8508 22.792L12.4278 21.1996C11.1087 34.8049 21.0685 46.9035 34.6738 48.2226L36.2661 31.7996Z" fill="#73895D" mask="url(#path-1-inside-1_0_277)"/>
</svg>
